<svg width="143" height="30" viewBox="0 0 143 30" fill="none" xmlns="http://www.w3.org/2000/svg">
<path d="M7.01465 15.8262L9.68945 9.35942H14.0293L9.06641 19.4356V25H4.97363V19.4356L0 9.35942H4.33984L7.01465 15.8262Z" fill="#EE2B69"/>
<path d="M27.8867 19.6182C27.8438 20.7211 27.5501 21.695 27.0059 22.5401C26.4616 23.378 25.7061 24.0333 24.7393 24.5059C23.7796 24.9786 22.6481 25.2149 21.3447 25.2149C19.9339 25.2149 18.7272 24.9069 17.7246 24.2911C16.722 23.668 15.9557 22.78 15.4258 21.627C14.903 20.474 14.6416 19.099 14.6416 17.502V16.8682C14.6416 15.264 14.9173 13.8855 15.4688 12.7325C16.0202 11.5795 16.79 10.6915 17.7783 10.0684C18.7738 9.44536 19.9411 9.13384 21.2803 9.13384C22.6696 9.13384 23.8369 9.38449 24.7822 9.88579C25.7347 10.3871 26.4688 11.071 26.9844 11.9375C27.5072 12.8041 27.8151 13.7816 27.9082 14.8702H23.8906C23.8763 14.0538 23.6794 13.445 23.2998 13.044C22.9202 12.643 22.2471 12.4424 21.2803 12.4424C20.7002 12.4424 20.2204 12.5821 19.8408 12.8614C19.4684 13.1335 19.1891 13.5918 19.0029 14.2364C18.8239 14.8737 18.7344 15.7439 18.7344 16.8467V17.502C18.7344 18.612 18.8132 19.4893 18.9707 20.1338C19.1354 20.7712 19.4076 21.226 19.7871 21.4981C20.1738 21.7702 20.693 21.9063 21.3447 21.9063C21.8818 21.9063 22.3366 21.8275 22.709 21.67C23.0814 21.5124 23.3643 21.2653 23.5576 20.9288C23.7581 20.5922 23.862 20.1553 23.8691 19.6182H27.8867Z" fill="#EE2B69"/>
<path d="M31.2275 25V21.7559H34.6758C35.3561 21.7559 35.929 21.5984 36.3945 21.2833C36.86 20.9681 37.2145 20.4919 37.458 19.8545C37.7015 19.2172 37.8232 18.4151 37.8232 17.4483V16.9004C37.8232 15.9408 37.7015 15.1459 37.458 14.5157C37.2217 13.8783 36.8636 13.4021 36.3838 13.087C35.9111 12.7719 35.3203 12.6143 34.6113 12.6143H31.1631V9.35942H34.6113C36.0436 9.35942 37.3076 9.68169 38.4033 10.3262C39.5062 10.9708 40.3691 11.8624 40.9922 13.001C41.6152 14.1325 41.9268 15.4395 41.9268 16.9219V17.4483C41.9268 18.9236 41.6152 20.2305 40.9922 21.3692C40.3691 22.5079 39.5133 23.3995 38.4248 24.044C37.3363 24.6814 36.0866 25 34.6758 25H31.2275ZM33.5586 25H29.5195V9.35942H33.5586V25Z" fill="black"/>
<path d="M45.6973 8.50005C46.3346 8.50005 46.8467 8.67909 47.2334 9.03716C47.6273 9.39523 47.8242 9.86073 47.8242 10.4336C47.8242 10.9994 47.6273 11.4649 47.2334 11.8301C46.8467 12.1882 46.3346 12.3672 45.6973 12.3672C45.0671 12.3672 44.555 12.1882 44.1611 11.8301C43.7673 11.4649 43.5703 10.9994 43.5703 10.4336C43.5703 9.86073 43.7673 9.39523 44.1611 9.03716C44.555 8.67909 45.0671 8.50005 45.6973 8.50005ZM47.6416 25H43.7529V13.377H47.6416V25Z" fill="black"/>
<path d="M53.6143 25H49.7471V13.377H53.3564L53.6143 16.4815V25ZM56.9014 17.0723C56.751 17.058 56.5469 17.0401 56.2891 17.0186C56.0384 16.9971 55.8343 16.9864 55.6768 16.9864C55.1325 16.9864 54.6885 17.058 54.3447 17.2012C54.0081 17.3373 53.7646 17.5521 53.6143 17.8458C53.4639 18.1394 53.3923 18.5261 53.3994 19.0059L52.7227 18.4258C52.7227 17.3731 52.8551 16.4528 53.1201 15.6651C53.3851 14.8702 53.7575 14.2543 54.2373 13.8174C54.7243 13.3806 55.2936 13.1622 55.9453 13.1622C56.1243 13.1622 56.3034 13.1729 56.4824 13.1944C56.6686 13.2087 56.8298 13.2409 56.9658 13.2911L56.9014 17.0723Z" fill="black"/>
<path d="M63.8838 25.2149C62.5947 25.2149 61.4954 24.9535 60.5859 24.4307C59.6836 23.9079 58.9961 23.2204 58.5234 22.3682C58.0508 21.5088 57.8145 20.5814 57.8145 19.586V19.1885C57.8145 18.0785 58.0221 17.0687 58.4375 16.1592C58.8529 15.2426 59.4795 14.5157 60.3174 13.9786C61.1553 13.4343 62.208 13.1622 63.4756 13.1622C64.5999 13.1622 65.5596 13.3949 66.3545 13.8604C67.1494 14.3187 67.7581 14.9776 68.1807 15.837C68.6104 16.6892 68.8252 17.7097 68.8252 18.8985V20.5206H59.2646V18.0391H65.0439V17.7276C65.0511 17.391 64.9938 17.1153 64.8721 16.9004C64.7503 16.6856 64.5677 16.528 64.3242 16.4278C64.0879 16.3275 63.7943 16.2774 63.4434 16.2774C62.9421 16.2774 62.5661 16.417 62.3154 16.6963C62.0648 16.9756 61.8965 17.3373 61.8105 17.7813C61.7246 18.2181 61.6816 18.6872 61.6816 19.1885V19.586C61.6816 20.1016 61.7783 20.5492 61.9717 20.9288C62.165 21.3012 62.4443 21.5876 62.8096 21.7881C63.182 21.9887 63.626 22.0889 64.1416 22.0889C64.6143 22.0889 65.0869 22.0066 65.5596 21.8418C66.0394 21.6771 66.444 21.3871 66.7734 20.9717L68.5137 23.1954C68.1556 23.6967 67.5755 24.1586 66.7734 24.5811C65.9785 25.0036 65.0153 25.2149 63.8838 25.2149Z" fill="black"/>
<path d="M75.2598 25.2149C74.0352 25.2149 73.0146 24.9571 72.1982 24.4415C71.389 23.9258 70.7803 23.224 70.3721 22.336C69.9639 21.4408 69.7598 20.4275 69.7598 19.2959V19.0918C69.7598 17.9603 69.9603 16.947 70.3613 16.0518C70.7695 15.1566 71.3783 14.4512 72.1875 13.9356C73.0039 13.42 74.0208 13.1622 75.2383 13.1622C76.2266 13.1622 77.0931 13.3484 77.8379 13.7208C78.5898 14.086 79.1771 14.6231 79.5996 15.3321C80.0221 16.0411 80.2262 16.9076 80.2119 17.9317H76.5918C76.599 17.6309 76.5524 17.3552 76.4521 17.1045C76.359 16.8539 76.2051 16.6534 75.9902 16.503C75.7754 16.3526 75.4925 16.2774 75.1416 16.2774C74.6904 16.2774 74.3574 16.4063 74.1426 16.6641C73.9277 16.9148 73.7881 17.2549 73.7236 17.6846C73.6592 18.1071 73.627 18.5762 73.627 19.0918V19.2959C73.627 19.8259 73.6556 20.3021 73.7129 20.7247C73.7773 21.1472 73.9206 21.4838 74.1426 21.7344C74.3646 21.9779 74.7083 22.0997 75.1738 22.0997C75.4889 22.0997 75.7539 22.0459 75.9688 21.9385C76.1836 21.8311 76.3411 21.6771 76.4414 21.4766C76.5488 21.2689 76.599 21.0219 76.5918 20.7354H80.2119C80.2262 21.6449 80.015 22.4362 79.5781 23.1094C79.1484 23.7754 78.5576 24.2946 77.8057 24.667C77.0609 25.0323 76.2122 25.2149 75.2598 25.2149Z" fill="black"/>
<path d="M87.9678 16.17H80.8242V13.377H87.9678V16.17ZM86.1094 10.4874V20.9932C86.1094 21.2653 86.1416 21.4802 86.2061 21.6377C86.2705 21.7881 86.3851 21.8956 86.5498 21.96C86.7217 22.0245 86.9544 22.0567 87.248 22.0567C87.4486 22.0567 87.6169 22.0531 87.7529 22.0459C87.889 22.0388 88.0143 22.0245 88.1289 22.003V24.8819C87.7995 24.9965 87.4629 25.0788 87.1191 25.129C86.7826 25.1862 86.4137 25.2149 86.0127 25.2149C85.2106 25.2149 84.5267 25.0896 83.9609 24.8389C83.4023 24.5811 82.9762 24.1836 82.6826 23.6465C82.389 23.1023 82.2422 22.404 82.2422 21.5518V10.4874H86.1094Z" fill="black"/>
<path d="M88.623 19.0918C88.623 17.9532 88.8379 16.9398 89.2676 16.0518C89.6973 15.1566 90.3311 14.4512 91.1689 13.9356C92.0068 13.42 93.0381 13.1622 94.2627 13.1622C95.5016 13.1622 96.54 13.42 97.3779 13.9356C98.223 14.4512 98.8568 15.1566 99.2793 16.0518C99.709 16.9398 99.9238 17.9532 99.9238 19.0918V19.2959C99.9238 20.4275 99.709 21.4408 99.2793 22.336C98.8568 23.2312 98.2266 23.9366 97.3887 24.4522C96.5508 24.9607 95.516 25.2149 94.2842 25.2149C93.0524 25.2149 92.014 24.9607 91.1689 24.4522C90.3311 23.9366 89.6973 23.2312 89.2676 22.336C88.8379 21.4408 88.623 20.4275 88.623 19.2959V19.0918ZM92.501 19.2959C92.501 19.8259 92.5475 20.3057 92.6406 20.7354C92.7409 21.1579 92.9199 21.4909 93.1777 21.7344C93.4355 21.9779 93.8044 22.0997 94.2842 22.0997C94.7568 22.0997 95.1221 21.9779 95.3799 21.7344C95.6377 21.4909 95.8131 21.1579 95.9062 20.7354C96.0065 20.3057 96.0566 19.8259 96.0566 19.2959V19.0918C96.0566 18.5762 96.0065 18.1071 95.9062 17.6846C95.8131 17.2549 95.6377 16.9148 95.3799 16.6641C95.1221 16.4063 94.7497 16.2774 94.2627 16.2774C93.79 16.2774 93.4248 16.4063 93.167 16.6641C92.9163 16.9148 92.7409 17.2549 92.6406 17.6846C92.5475 18.1071 92.501 18.5762 92.501 19.0918V19.2959Z" fill="black"/>
<path d="M105.327 25H101.46V13.377H105.069L105.327 16.4815V25ZM108.614 17.0723C108.464 17.058 108.26 17.0401 108.002 17.0186C107.751 16.9971 107.547 16.9864 107.39 16.9864C106.845 16.9864 106.401 17.058 106.058 17.2012C105.721 17.3373 105.478 17.5521 105.327 17.8458C105.177 18.1394 105.105 18.5261 105.112 19.0059L104.436 18.4258C104.436 17.3731 104.568 16.4528 104.833 15.6651C105.098 14.8702 105.47 14.2543 105.95 13.8174C106.437 13.3806 107.007 13.1622 107.658 13.1622C107.837 13.1622 108.016 13.1729 108.195 13.1944C108.382 13.2087 108.543 13.2409 108.679 13.2911L108.614 17.0723Z" fill="black"/>
<path d="M116.349 13.377H120.495L115.865 26.7081C115.765 27.0017 115.629 27.3204 115.457 27.6641C115.285 28.0079 115.052 28.3337 114.759 28.6417C114.472 28.9496 114.1 29.2002 113.642 29.3936C113.19 29.5941 112.628 29.6944 111.955 29.6944C111.712 29.6944 111.518 29.6872 111.375 29.6729C111.232 29.6657 111.092 29.6443 110.956 29.6084C110.82 29.5726 110.637 29.5261 110.408 29.4688V26.5899C110.494 26.5899 110.566 26.5863 110.623 26.5792C110.688 26.5792 110.763 26.5792 110.849 26.5792C111.422 26.5792 111.823 26.5075 112.052 26.3643C112.288 26.2282 112.453 26.0385 112.546 25.795L113.405 23.5928L116.349 13.377ZM115.07 21.1866L115.468 25.5049L112.89 25.3653L108.797 13.377H112.943L115.07 21.1866Z" fill="black"/>
<path d="M141.969 14.5658C142.305 15.1361 141.975 15.8981 140.906 16.7527C139.721 17.6903 138.501 18.5843 137.299 19.5003C136.813 20.163 136.108 20.4969 135.348 20.6388C134.045 20.8942 133.155 19.8136 133.665 18.5911C133.94 17.9305 134.277 17.2566 135.042 16.9923C136.355 15.8859 137.83 15.0186 139.406 14.352C140.638 13.8315 141.605 13.957 141.969 14.5658Z" fill="black"/>
<path d="M133.115 8.42935C132.747 8.66101 132.371 8.92099 132.093 9.2487C130.859 10.7012 129.641 12.1712 128.717 13.8518C128.53 14.1903 128.378 14.559 128.278 14.9318C128.128 15.4945 128.25 16.0064 128.764 16.3512C129.274 16.6926 129.777 16.5988 130.276 16.2952C130.661 16.0618 130.973 15.7498 131.219 15.3862C131.684 14.6988 132.118 13.9911 132.387 13.5708C132.99 12.5201 133.446 11.7668 133.857 10.99C134.107 10.5171 134.321 10.0187 134.492 9.51072C134.621 9.12782 134.577 8.7281 134.216 8.45178C133.861 8.17952 133.463 8.21156 133.115 8.42935Z" fill="black"/>
<path d="M124.904 4.70134C125.081 5.24328 125.324 5.79569 125.119 6.39633L125.126 6.40102C125.416 8.38557 125.688 10.3681 125.46 12.3771C125.396 12.9531 125.275 13.5347 125.124 14.0975C124.981 14.665 124.602 15.0295 124.002 15.1168C123.402 15.2044 122.976 14.8897 122.639 14.4345C122.325 13.9933 122.178 13.4705 122.067 12.9394C121.68 11.1546 121.723 9.35197 121.854 7.54273C121.587 6.61886 121.802 5.70993 122.014 4.82073C122.191 4.11816 122.616 3.58429 123.407 3.52445C124.054 3.47856 124.642 3.91681 124.904 4.70134Z" fill="black"/>
</svg>
